<svg width="24" height="25" viewBox="0 0 24 25" version="1.1" xmlns="http://www.w3.org/2000/svg"><g stroke="none" stroke-width="1" fill="none" fill-rule="evenodd"><path d="M0 12.65c0-6.628 5.372-12 12-12 6.627 0 12 5.372 12 12 0 6.627-5.373 12-12 12-6.628 0-12-5.373-12-12" fill="#B933AD"/><path d="M9.674 18.14c.086-1.974.754-4.055 1.985-6.187.81-1.343 1.495-2.293 2.038-2.822l.177-.171H8.086l.028-1.8h7.802v1.642c-.307.26-.78.855-1.376 1.696a15.75 15.75 0 00-1.504 2.622c-.32.708-.61 1.58-.866 2.595-.244.968-.374 1.783-.386 2.425h-2.11z" fill="#FFF"/></g></svg>