<svg width="24" height="25" viewBox="0 0 24 25" version="1.1" xmlns="http://www.w3.org/2000/svg"><g stroke="none" stroke-width="1" fill="none" fill-rule="evenodd"><path d="M0 12.705c0-6.628 5.372-12 12-12 6.627 0 12 5.372 12 12 0 6.627-5.373 12-12 12-6.628 0-12-5.373-12-12" fill="#FF6319"/><path d="M9.475 11.586h2.898c.518 0 .945-.101 1.27-.3.343-.209.516-.578.516-1.096 0-.579-.229-.967-.68-1.156-.37-.125-.839-.186-1.4-.186H9.475v2.738zm0 4.977h2.896c.512 0 .919-.072 1.209-.213.54-.268.813-.782.813-1.528 0-.639-.266-1.085-.791-1.325-.286-.131-.688-.199-1.192-.204H9.475v3.27zm-2.098 1.8V7.047h5.466c1.362.02 2.34.419 2.904 1.186.337.468.509 1.04.509 1.699 0 .675-.172 1.224-.51 1.631-.191.229-.476.441-.848.631l-.204.105.216.078c.564.205.995.534 1.281.977.287.444.432.994.432 1.632 0 .66-.168 1.26-.498 1.783a3.09 3.09 0 01-.791.879 3.108 3.108 0 01-1.26.561 7.93 7.93 0 01-1.608.154H7.377z" fill="#FFF"/></g></svg>