<svg width="25" height="25" viewBox="0 0 25 25" version="1.1" xmlns="http://www.w3.org/2000/svg"><g stroke="none" stroke-width="1" fill="none" fill-rule="evenodd"><path d="M.331 12.306c0-6.627 5.372-12 12-12 6.627 0 12 5.373 12 12 0 6.628-5.373 12-12 12-6.628 0-12-5.372-12-12" fill="#0039A6"/><path d="M12.537 18.134c-1.57 0-2.82-.514-3.716-1.527-.9-1.024-1.356-2.456-1.356-4.258 0-1.945.519-3.463 1.543-4.508.883-.904 2.027-1.363 3.397-1.363 1.838 0 3.197.613 4.04 1.822.418.607.665 1.224.736 1.834h-2.04c-.153-.507-.35-.904-.586-1.181-.466-.544-1.159-.82-2.059-.82-.921 0-1.66.385-2.191 1.144-.516.737-.778 1.784-.778 3.11 0 1.334.279 2.352.825 3.029.562.69 1.284 1.038 2.149 1.038.886 0 1.572-.303 2.046-.904.231-.288.43-.712.588-1.26h2c-.224 1.1-.72 2.015-1.478 2.717-.806.747-1.854 1.127-3.12 1.127" fill="#FFF"/></g></svg>