<svg width="25" height="25" viewBox="0 0 25 25" version="1.1" xmlns="http://www.w3.org/2000/svg"><g stroke="none" stroke-width="1" fill="none" fill-rule="evenodd"><path d="M.44 12.705c0-6.628 5.374-12 12-12 6.629 0 12 5.372 12 12 0 6.627-5.371 12-12 12-6.626 0-12-5.373-12-12" fill="#FF6319"/><path d="M10.802 16.563h2.322c1.177 0 2.008-.586 2.471-1.742.25-.624.375-1.375.375-2.233 0-1.184-.189-2.11-.565-2.75-.385-.657-1.153-.99-2.28-.99h-2.323v7.715zm-2.137 1.8V7.048h4.866c.7.01 1.29.094 1.751.245a3.727 3.727 0 011.912 1.424A5.05 5.05 0 0118 10.54c.144.658.217 1.292.217 1.884 0 1.506-.307 2.799-.91 3.84-.81 1.394-2.08 2.1-3.775 2.1H8.665z" fill="#FFF"/></g></svg>