<svg width="25" height="24" viewBox="0 0 25 24" version="1.1" xmlns="http://www.w3.org/2000/svg"><g stroke="none" stroke-width="1" fill="none" fill-rule="evenodd"><path d="M.44 12c0-6.627 5.374-12 12-12 6.629 0 12 5.373 12 12s-5.371 12-12 12c-6.626 0-12-5.373-12-12" fill="#808183"/><path d="M9.714 17.975c-1.485 0-2.668-.34-3.516-1.006-.814-.642-1.239-1.533-1.263-2.646h2.11c.08.5.231.883.447 1.144.418.495 1.134.746 2.127.746.59 0 1.074-.064 1.445-.192.728-.254 1.096-.735 1.096-1.431 0-.416-.185-.741-.55-.968-.345-.208-.893-.393-1.63-.551l-1.247-.274c-1.207-.266-2.043-.557-2.49-.867-.745-.51-1.122-1.32-1.122-2.41 0-.996.372-1.836 1.106-2.496.737-.662 1.841-.998 3.28-.998 1.2 0 2.238.318 3.083.945.813.604 1.257 1.485 1.32 2.62h-2.116c-.067-.678-.395-1.171-.976-1.465-.398-.2-.896-.3-1.479-.3-.653 0-1.184.13-1.577.392a1.285 1.285 0 00-.613 1.13c0 .449.206.789.612 1.01.248.139.757.299 1.556.486l2.02.477c.865.203 1.523.477 1.953.816.657.52.991 1.285.991 2.274 0 1.016-.399 1.873-1.185 2.544-.79.677-1.929 1.02-3.382 1.02" fill="#FFF"/><path stroke="#FFF" stroke-width=".2" d="M15.736 11.848V6.026h4.127v.939h-2.998v1.468h2.628v.928h-2.628v2.487z"/><path fill="#FFF" d="M15.736 11.848V6.026h4.127v.939h-2.998v1.468h2.628v.928h-2.628v2.487z"/></g></svg>