<svg width="24" height="25" viewBox="0 0 24 25" version="1.1" xmlns="http://www.w3.org/2000/svg"><g stroke="none" stroke-width="1" fill="none" fill-rule="evenodd"><path d="M0 12.65c0-6.628 5.372-12 12-12 6.627 0 12 5.372 12 12 0 6.627-5.373 12-12 12-6.628 0-12-5.373-12-12" fill="#6CBE45"/><path d="M11.921 18.505c-1.46 0-2.674-.512-3.604-1.521-.975-1.021-1.47-2.441-1.47-4.221 0-1.803.501-3.266 1.488-4.347.982-1.076 2.302-1.622 3.922-1.622 1.408 0 2.552.359 3.398 1.068.785.655 1.263 1.47 1.425 2.424H15.1c-.219-.766-.694-1.315-1.41-1.633a3.505 3.505 0 00-1.402-.273c-.983 0-1.804.376-2.437 1.119-.625.732-.942 1.837-.942 3.283 0 1.465.348 2.525 1.033 3.15.681.619 1.468.932 2.338.932.856 0 1.568-.251 2.12-.746.546-.49.888-1.142 1.015-1.937l.037-.231h-2.699v-1.523h4.398v5.78h-1.224l-.287-1.695-.278.329c-.448.525-.852.898-1.2 1.108-.602.369-1.356.556-2.24.556" fill="#FFF"/></g></svg>