<svg width="24" height="25" viewBox="0 0 24 25" version="1.1" xmlns="http://www.w3.org/2000/svg"><g stroke="none" stroke-width="1" fill="none" fill-rule="evenodd"><path d="M0 12.7C0 6.07 5.372.7 12 .7c6.627 0 12 5.371 12 12 0 6.626-5.373 12-12 12-6.628 0-12-5.374-12-12" fill="#808183"/><path d="M12.107 18.674c-1.485 0-2.668-.34-3.516-1.006-.814-.642-1.24-1.533-1.263-2.646h2.11c.08.5.23.883.447 1.144.418.495 1.134.746 2.127.746.589 0 1.074-.064 1.445-.192.728-.254 1.096-.735 1.096-1.431 0-.416-.185-.741-.55-.968-.345-.208-.893-.393-1.631-.551l-1.246-.274c-1.207-.266-2.043-.557-2.491-.867-.744-.51-1.121-1.32-1.121-2.41 0-.996.372-1.836 1.106-2.496.737-.662 1.84-.998 3.279-.998 1.2 0 2.239.318 3.084.945.813.604 1.257 1.485 1.319 2.62h-2.115c-.067-.678-.395-1.171-.976-1.465-.398-.2-.896-.3-1.48-.3-.652 0-1.183.13-1.576.392a1.285 1.285 0 00-.613 1.13c0 .449.206.789.612 1.01.248.139.757.299 1.556.486l2.019.477c.866.203 1.524.477 1.954.816.657.52.99 1.285.99 2.274 0 1.016-.398 1.873-1.184 2.544-.791.677-1.93 1.02-3.382 1.02" fill="#FFF"/></g></svg>