<svg width="24" height="25" viewBox="0 0 24 25" version="1.1" xmlns="http://www.w3.org/2000/svg"><g stroke="none" stroke-width="1" fill="none" fill-rule="evenodd"><path d="M0 12.65c0-6.628 5.372-12 12-12 6.627 0 12 5.372 12 12 0 6.627-5.373 12-12 12-6.628 0-12-5.373-12-12z" fill="#963"/><path d="M12.08 18.348c-1.382 0-2.313-.364-2.771-1.083-.476-.75-.717-1.792-.717-3.1V14.1h1.872v.065c.02.93.117 1.57.293 1.96.2.44.614.662 1.236.662.77 0 1.1-.388 1.24-.714.115-.262.17-.677.17-1.267V6.952h2.006v7.815c0 .937-.158 1.687-.469 2.228-.526.91-1.463 1.353-2.86 1.353" fill="#FFF"/></g></svg>