<svg width="25" height="25" viewBox="0 0 25 25" version="1.1" xmlns="http://www.w3.org/2000/svg"><g stroke="none" stroke-width="1" fill="none" fill-rule="evenodd"><path d="M.074 12.705c0-6.628 5.373-12 12-12 6.628 0 12 5.372 12 12 0 6.627-5.372 12-12 12-6.627 0-12-5.373-12-12" fill="#FF6319"/><path d="M16.035 18.644V11.67c0-.235.005-.624.016-1.168.004-.164.005-.331.008-.502l-2.925 8.644h-1.828l-2.951-8.637.01.388c.016.578.024 1.004.024 1.275v6.974H6.504V6.767h2.57l3.156 9.28 3.134-9.28h2.556v11.877h-1.885z" fill="#FFF"/></g></svg>