<svg width="25" height="25" viewBox="0 0 25 25" version="1.1" xmlns="http://www.w3.org/2000/svg"><g stroke="none" stroke-width="1" fill="none" fill-rule="evenodd"><path d="M.331 12.729c0-6.628 5.372-12 12-12 6.627 0 12 5.372 12 12 0 6.627-5.373 12-12 12-6.628 0-12-5.373-12-12" fill="#FCCC0A"/><path d="M12.378 7.924c-1.175 0-2.116.376-2.798 1.119-.685.75-1.033 1.932-1.033 3.513 0 1.326.335 2.393.997 3.17.653.768 1.632 1.157 2.91 1.157.313 0 .608-.021.877-.064.07-.011.14-.027.208-.044l.197-.051-1.189-.923 1.034-1.272 1.5 1.17.062-.08c.354-.46.602-.97.74-1.514a7.72 7.72 0 00.248-1.883c0-1.295-.34-2.35-1.01-3.132-.673-.785-1.57-1.166-2.743-1.166zm2.88 10.007l-.057.028a7.04 7.04 0 01-1.258.488 6.137 6.137 0 01-1.683.219c-1.834 0-3.293-.612-4.338-1.82-.917-1.17-1.385-2.65-1.385-4.396 0-1.586.402-2.964 1.193-4.098 1.025-1.467 2.557-2.211 4.554-2.211 2.083 0 3.652.684 4.66 2.033.784 1.045 1.181 2.396 1.181 4.017 0 .755-.095 1.49-.28 2.184-.252.949-.663 1.755-1.222 2.395l-.069.079 1.562 1.219-1.032 1.249-1.827-1.386z" fill="#000"/></g></svg>