<svg width="25" height="25" viewBox="0 0 25 25" version="1.1" xmlns="http://www.w3.org/2000/svg"><g stroke="none" stroke-width="1" fill="none" fill-rule="evenodd"><path d="M.074 12.729c0-6.628 5.373-12 12-12 6.628 0 12 5.372 12 12 0 6.627-5.372 12-12 12-6.627 0-12-5.373-12-12" fill="#FCCC0A"/><path d="M9.535 12.264h2.789c.543 0 .962-.07 1.245-.207.528-.253.794-.75.794-1.477 0-.773-.257-1.305-.764-1.582-.28-.152-.674-.226-1.21-.226H9.536v3.492zm4.726 6.023a7.784 7.784 0 01-.113-.457 5.675 5.675 0 01-.097-.956l-.016-1.07c-.01-.795-.153-1.321-.438-1.606-.286-.288-.781-.426-1.513-.426h-2.55v4.515H7.583V7.17h5.308c.754.016 1.34.11 1.74.282.392.169.729.42 1.002.749.229.275.414.583.548.915.13.33.199.712.199 1.136a3.26 3.26 0 01-.393 1.522c-.25.478-.672.823-1.254 1.023l-.508.174.498.2c.486.197.832.473 1.03.823.203.362.306.934.306 1.704v.773c0 .545.022.909.068 1.113.064.299.204.534.418.703H14.26z" fill="#000"/></g></svg>