<svg width="24" height="25" viewBox="0 0 24 25" version="1.1" xmlns="http://www.w3.org/2000/svg"><g stroke="none" stroke-width="1" fill="none" fill-rule="evenodd"><path d="M0 12.306c0-6.627 5.372-12 12-12 6.627 0 12 5.373 12 12 0 6.628-5.373 12-12 12-6.628 0-12-5.372-12-12" fill="#0078C6"/><path d="M6.242 16.762c-1.11 0-1.991-.252-2.621-.748-.6-.472-.914-1.125-.938-1.941h1.536c.06.369.175.654.337.849.319.377.86.569 1.615.569.444 0 .81-.05 1.092-.146.557-.194.838-.563.838-1.097a.836.836 0 00-.424-.747c-.261-.158-.675-.298-1.232-.417l-.933-.205c-.902-.2-1.528-.417-1.86-.646-.558-.383-.83-.967-.83-1.787 0-.742.276-1.365.82-1.854.549-.492 1.37-.742 2.444-.742.894 0 1.667.237 2.298.705.597.443.926 1.089.978 1.92H7.824c-.056-.507-.306-.876-.744-1.097-.301-.151-.678-.227-1.12-.227-.494 0-.897.099-1.196.298a.986.986 0 00-.471.868c0 .346.159.608.472.779.189.106.573.227 1.173.367l1.515.358c.647.152 1.137.356 1.454.607.488.385.735.952.735 1.686 0 .755-.296 1.39-.88 1.89-.588.503-1.436.758-2.52.758M10.96 16.54h1.594V8.102H10.96zM16.046 11.922h2.042c.404 0 .703-.05.912-.15.377-.182.567-.54.567-1.063 0-.56-.183-.944-.546-1.142-.203-.111-.492-.165-.883-.165h-2.092v2.52zm3.457 4.617a5.743 5.743 0 01-.096-.383 4.234 4.234 0 01-.074-.726l-.012-.802c-.007-.584-.11-.967-.313-1.171-.206-.205-.566-.305-1.1-.305h-1.862v3.387h-1.564V8.102h4.031c.573.01 1.018.084 1.324.215.302.129.561.323.77.575a2.6 2.6 0 01.418.7c.102.253.154.547.154.87a2.5 2.5 0 01-.3 1.166c-.196.375-.513.634-.969.79l-.254.089.25.1c.373.15.642.366.796.639.156.279.237.716.237 1.3v.58c0 .408.015.678.05.826a.826.826 0 00.378.556l-.01.03h-1.854z" fill="#FFF"/></g></svg>