<svg width="24" height="25" viewBox="0 0 24 25" version="1.1" xmlns="http://www.w3.org/2000/svg"><g stroke="none" stroke-width="1" fill="none" fill-rule="evenodd"><path d="M0 12.729c0-6.628 5.372-12 12-12 6.627 0 12 5.372 12 12 0 6.627-5.373 12-12 12-6.628 0-12-5.373-12-12" fill="#FCCC0A"/><path fill="#000" d="M13.856 18.387l-1.374-6.655-.405-2.224h-.198l-.406 2.227-1.373 6.652H8.022L4.812 7.07h2.345l1.502 6.517.33 1.83h.197l.332-1.797 1.284-6.55h2.376l1.352 6.514.349 1.834h.197l.355-1.763 1.517-6.585h2.239l-3.185 11.316z"/></g></svg>